<svg width="639" height="128" viewBox="0 0 639 128" fill="none" xmlns="http://www.w3.org/2000/svg">
<path d="M417.268 66.784C417.268 67.408 417.42 67.952 417.724 68.416C418.044 68.88 418.428 69.28 418.876 69.616C419.324 69.936 419.932 70.32 420.7 70.768C421.5 71.216 422.14 71.624 422.62 71.992C423.116 72.344 423.532 72.784 423.868 73.312C424.204 73.84 424.372 74.456 424.372 75.16C424.372 75.944 424.18 76.648 423.796 77.272C423.412 77.896 422.844 78.392 422.092 78.76C421.356 79.112 420.476 79.288 419.452 79.288C418.172 79.288 417.028 79.008 416.02 78.448C415.94 78.4 415.884 78.336 415.852 78.256C415.82 78.176 415.796 78.088 415.78 77.992L415.468 74.728C415.452 74.664 415.492 74.624 415.588 74.608C415.684 74.592 415.74 74.616 415.756 74.68C415.98 75.8 416.452 76.784 417.172 77.632C417.892 78.48 418.836 78.904 420.004 78.904C420.804 78.904 421.476 78.688 422.02 78.256C422.564 77.808 422.836 77.104 422.836 76.144C422.836 75.424 422.668 74.8 422.332 74.272C422.012 73.728 421.612 73.28 421.132 72.928C420.668 72.56 420.052 72.152 419.284 71.704C418.532 71.256 417.924 70.864 417.46 70.528C417.012 70.176 416.628 69.752 416.308 69.256C416.004 68.744 415.852 68.152 415.852 67.48C415.852 66.68 416.06 66 416.476 65.44C416.908 64.864 417.46 64.44 418.132 64.168C418.82 63.88 419.548 63.736 420.316 63.736C421.276 63.736 422.22 63.928 423.148 64.312C423.404 64.408 423.532 64.544 423.532 64.72L423.676 67.48C423.676 67.544 423.628 67.584 423.532 67.6C423.452 67.6 423.404 67.568 423.388 67.504C423.324 67.008 423.164 66.504 422.908 65.992C422.652 65.464 422.268 65.016 421.756 64.648C421.26 64.28 420.652 64.096 419.932 64.096C419.036 64.096 418.364 64.36 417.916 64.888C417.484 65.4 417.268 66.032 417.268 66.784ZM437.19 77.152C437.206 77.136 437.23 77.128 437.262 77.128C437.326 77.128 437.382 77.16 437.43 77.224C437.494 77.272 437.51 77.312 437.478 77.344C436.966 78 436.518 78.48 436.134 78.784C435.766 79.072 435.382 79.216 434.982 79.216C434.07 79.216 433.63 78.584 433.662 77.32L433.686 73.048C433.702 71.256 433.222 70.36 432.246 70.36C431.638 70.36 431.086 70.688 430.59 71.344C430.094 72 429.694 72.968 429.39 74.248C429.086 75.528 428.918 77.056 428.886 78.832C428.886 79.072 428.63 79.192 428.118 79.192C427.878 79.192 427.718 79.176 427.638 79.144C427.558 79.128 427.51 79.096 427.494 79.048L427.518 78.472L427.542 77.224L427.71 64.144C427.71 63.392 427.446 63.016 426.918 63.016C426.63 63.016 426.222 63.136 425.694 63.376H425.646C425.582 63.376 425.542 63.344 425.526 63.28C425.494 63.2 425.502 63.144 425.55 63.112L428.694 61.6H428.742C428.79 61.6 428.846 61.624 428.91 61.672C428.974 61.72 429.006 61.76 429.006 61.792L428.91 74.8C429.214 73.12 429.71 71.808 430.398 70.864C431.102 69.904 431.95 69.424 432.942 69.424C433.646 69.424 434.166 69.68 434.502 70.192C434.854 70.704 435.022 71.504 435.006 72.592L434.982 76.864C434.982 77.344 435.038 77.696 435.15 77.92C435.262 78.144 435.438 78.256 435.678 78.256C436.078 78.256 436.582 77.888 437.19 77.152ZM448.387 77.152C448.403 77.136 448.427 77.128 448.459 77.128C448.507 77.128 448.555 77.16 448.603 77.224C448.651 77.272 448.667 77.312 448.651 77.344C448.187 77.984 447.755 78.456 447.355 78.76C446.971 79.064 446.579 79.216 446.179 79.216C445.283 79.216 444.835 78.584 444.835 77.32L444.883 74.344C444.355 75.832 443.659 77.032 442.795 77.944C441.947 78.856 441.043 79.312 440.083 79.312C439.475 79.312 438.979 79.104 438.595 78.688C438.227 78.256 438.043 77.576 438.043 76.648C438.043 75.544 438.307 74.432 438.835 73.312C439.379 72.176 440.083 71.248 440.947 70.528C441.811 69.792 442.691 69.424 443.587 69.424C443.923 69.424 444.251 69.48 444.571 69.592C444.907 69.704 445.203 69.872 445.459 70.096C445.715 69.84 445.867 69.56 445.915 69.256C445.931 69.224 445.987 69.208 446.083 69.208C446.195 69.208 446.243 69.224 446.227 69.256L446.179 76.864C446.163 77.792 446.387 78.256 446.851 78.256C447.251 78.256 447.763 77.888 448.387 77.152ZM440.851 78.136C441.507 78.136 442.139 77.824 442.747 77.2C443.355 76.56 443.843 75.776 444.211 74.848C444.595 73.92 444.787 73.048 444.787 72.232C444.787 71.64 444.611 71.168 444.259 70.816C443.923 70.448 443.475 70.264 442.915 70.264C442.275 70.264 441.683 70.496 441.139 70.96C440.595 71.424 440.163 72.064 439.843 72.88C439.523 73.696 439.363 74.608 439.363 75.616C439.363 76.48 439.483 77.12 439.723 77.536C439.979 77.936 440.355 78.136 440.851 78.136ZM452.726 79.024C452.342 79.024 451.91 79 451.43 78.952V83.272C451.43 83.832 451.51 84.216 451.67 84.424C451.83 84.648 452.126 84.76 452.558 84.76C452.67 84.76 452.886 84.744 453.206 84.712H453.23C453.278 84.712 453.31 84.752 453.326 84.832C453.342 84.912 453.318 84.96 453.254 84.976L448.838 85.6C448.774 85.616 448.726 85.576 448.694 85.48C448.678 85.384 448.702 85.328 448.766 85.312C449.15 85.248 449.422 85.16 449.582 85.048C449.758 84.952 449.87 84.792 449.918 84.568C449.982 84.344 450.014 83.968 450.014 83.44L450.038 72.04C449.958 72.088 449.614 72.36 449.006 72.856L448.958 72.88C448.894 72.88 448.838 72.848 448.79 72.784C448.742 72.72 448.734 72.672 448.766 72.64C449.038 72.384 449.462 72.016 450.038 71.536V69.736C450.038 69.704 450.142 69.592 450.35 69.4C450.558 69.208 450.742 69 450.902 68.776C451.062 68.552 451.142 68.296 451.142 68.008C451.142 67.944 451.19 67.912 451.286 67.912C451.382 67.912 451.43 67.944 451.43 68.008V70.6C452.614 69.912 453.742 69.568 454.814 69.568C455.822 69.568 456.598 69.872 457.142 70.48C457.686 71.088 457.958 71.976 457.958 73.144C457.958 74.232 457.742 75.224 457.31 76.12C456.878 77.016 456.262 77.728 455.462 78.256C454.678 78.768 453.766 79.024 452.726 79.024ZM453.854 70.432C453.07 70.432 452.262 70.664 451.43 71.128V77.944C452.118 78.216 452.782 78.352 453.422 78.352C454.59 78.352 455.414 77.976 455.894 77.224C456.39 76.472 456.638 75.424 456.638 74.08C456.638 71.648 455.71 70.432 453.854 70.432ZM462.628 79.216C462.18 79.216 461.836 79.056 461.596 78.736C461.372 78.416 461.268 77.944 461.284 77.32L461.356 71.872C461.372 70.928 461.14 70.456 460.66 70.456C460.276 70.456 459.74 70.84 459.052 71.608C459.02 71.64 458.996 71.656 458.98 71.656C458.916 71.656 458.86 71.632 458.812 71.584C458.764 71.52 458.756 71.464 458.788 71.416C459.268 70.776 459.716 70.304 460.132 70C460.548 69.68 460.98 69.52 461.428 69.52C461.876 69.52 462.204 69.672 462.412 69.976C462.62 70.28 462.724 70.744 462.724 71.368L462.652 76.864C462.652 77.792 462.876 78.256 463.324 78.256C463.724 78.256 464.236 77.888 464.86 77.152C464.876 77.136 464.9 77.128 464.932 77.128C464.996 77.128 465.052 77.16 465.1 77.224C465.164 77.272 465.18 77.312 465.148 77.344C464.652 77.984 464.212 78.456 463.828 78.76C463.444 79.064 463.044 79.216 462.628 79.216ZM461.788 66.712C461.452 66.712 461.188 66.624 460.996 66.448C460.804 66.256 460.708 65.992 460.708 65.656C460.708 65.352 460.804 65.112 460.996 64.936C461.188 64.76 461.452 64.672 461.788 64.672C462.092 64.672 462.332 64.76 462.508 64.936C462.7 65.112 462.796 65.352 462.796 65.656C462.796 65.992 462.708 66.256 462.532 66.448C462.356 66.624 462.108 66.712 461.788 66.712ZM477.142 77.128C477.206 77.128 477.262 77.16 477.31 77.224C477.374 77.272 477.39 77.312 477.358 77.344C476.862 77.984 476.422 78.456 476.038 78.76C475.67 79.064 475.278 79.216 474.862 79.216C473.95 79.216 473.51 78.584 473.542 77.32L473.566 73.048C473.566 71.256 473.094 70.36 472.15 70.36C471.542 70.36 470.982 70.688 470.47 71.344C469.974 72 469.574 72.968 469.27 74.248C468.966 75.528 468.806 77.056 468.79 78.832C468.79 78.944 468.718 79.032 468.574 79.096C468.446 79.16 468.254 79.192 467.998 79.192C467.758 79.192 467.598 79.176 467.518 79.144C467.438 79.128 467.382 79.096 467.35 79.048C467.35 78.984 467.358 78.768 467.374 78.4C467.406 78.016 467.422 77.624 467.422 77.224L467.47 71.872C467.47 71.392 467.406 71.04 467.278 70.816C467.15 70.576 466.974 70.456 466.75 70.456C466.398 70.456 465.862 70.84 465.142 71.608C465.11 71.64 465.086 71.656 465.07 71.656C465.006 71.656 464.95 71.632 464.902 71.584C464.854 71.52 464.846 71.464 464.878 71.416C465.358 70.776 465.806 70.304 466.222 70C466.638 69.68 467.07 69.52 467.518 69.52C467.966 69.52 468.286 69.672 468.478 69.976C468.686 70.28 468.79 70.744 468.79 71.368V74.776C469.094 73.096 469.59 71.784 470.278 70.84C470.982 69.896 471.83 69.424 472.822 69.424C473.526 69.424 474.054 69.68 474.406 70.192C474.758 70.688 474.926 71.488 474.91 72.592L474.886 76.864C474.886 77.344 474.934 77.696 475.03 77.92C475.142 78.144 475.318 78.256 475.558 78.256C475.926 78.256 476.438 77.888 477.094 77.152L477.142 77.128ZM485.805 69.232C485.821 69.184 485.877 69.16 485.973 69.16C486.069 69.16 486.117 69.192 486.117 69.256L486.069 80.488C486.069 82.072 485.653 83.344 484.821 84.304C484.005 85.264 482.869 85.744 481.413 85.744C480.533 85.744 479.797 85.56 479.205 85.192C478.613 84.84 478.317 84.4 478.317 83.872C478.317 83.424 478.565 83.2 479.061 83.2C479.269 83.2 479.445 83.256 479.589 83.368C479.733 83.496 479.893 83.688 480.069 83.944C480.341 84.344 480.629 84.656 480.933 84.88C481.253 85.104 481.725 85.216 482.349 85.216C483.069 85.216 483.645 84.912 484.077 84.304C484.509 83.712 484.725 82.632 484.725 81.064V74.392C484.197 75.88 483.509 77.072 482.661 77.968C481.829 78.864 480.949 79.312 480.021 79.312C478.741 79.312 478.045 78.48 477.933 76.816C477.901 75.68 478.149 74.536 478.677 73.384C479.221 72.232 479.925 71.288 480.789 70.552C481.669 69.8 482.565 69.424 483.477 69.424C484.213 69.424 484.829 69.64 485.325 70.072C485.597 69.832 485.757 69.552 485.805 69.232ZM484.677 72.184C484.677 71.624 484.501 71.168 484.149 70.816C483.813 70.448 483.333 70.264 482.709 70.264C482.117 70.28 481.549 70.52 481.005 70.984C480.477 71.448 480.053 72.08 479.733 72.88C479.413 73.68 479.253 74.568 479.253 75.544C479.253 77.272 479.749 78.136 480.741 78.136C481.381 78.136 482.005 77.832 482.613 77.224C483.221 76.6 483.717 75.824 484.101 74.896C484.485 73.968 484.677 73.064 484.677 72.184ZM500.49 77.296C500.538 77.296 500.586 77.328 500.634 77.392C500.682 77.44 500.69 77.48 500.658 77.512C499.986 78.136 499.378 78.592 498.834 78.88C498.306 79.152 497.77 79.288 497.226 79.288C496.618 79.288 496.114 79.128 495.714 78.808C495.314 78.488 495.122 77.968 495.138 77.248L495.162 71.656C495.146 71.24 495.114 70.944 495.066 70.768C495.018 70.592 494.914 70.48 494.754 70.432C494.61 70.368 494.354 70.336 493.986 70.336C493.922 70.336 493.882 70.288 493.866 70.192C493.866 70.096 493.898 70.048 493.962 70.048C494.57 70.048 495.058 69.88 495.426 69.544C495.81 69.192 496.034 68.744 496.098 68.2C496.098 68.152 496.162 68.128 496.29 68.128C496.45 68.128 496.53 68.152 496.53 68.2V69.976C497.122 69.96 498.234 69.904 499.866 69.808C499.93 69.808 499.978 69.832 500.01 69.88C500.058 69.912 500.082 69.96 500.082 70.024C500.066 70.184 499.978 70.36 499.818 70.552C499.674 70.744 499.506 70.824 499.314 70.792C498.21 70.648 497.282 70.568 496.53 70.552L496.506 76.504C496.506 77.16 496.618 77.64 496.842 77.944C497.082 78.232 497.498 78.376 498.09 78.376C498.538 78.376 498.946 78.288 499.314 78.112C499.682 77.92 500.066 77.648 500.466 77.296H500.49ZM512.237 77.152C512.253 77.136 512.277 77.128 512.309 77.128C512.373 77.128 512.429 77.16 512.477 77.224C512.541 77.272 512.557 77.312 512.525 77.344C512.013 78 511.565 78.48 511.181 78.784C510.813 79.072 510.429 79.216 510.029 79.216C509.117 79.216 508.677 78.584 508.709 77.32L508.733 73.048C508.749 71.256 508.269 70.36 507.293 70.36C506.685 70.36 506.133 70.688 505.637 71.344C505.141 72 504.741 72.968 504.437 74.248C504.133 75.528 503.965 77.056 503.933 78.832C503.933 79.072 503.677 79.192 503.165 79.192C502.925 79.192 502.765 79.176 502.685 79.144C502.605 79.128 502.557 79.096 502.541 79.048L502.565 78.472L502.589 77.224L502.757 64.144C502.757 63.392 502.493 63.016 501.965 63.016C501.677 63.016 501.269 63.136 500.741 63.376H500.693C500.629 63.376 500.589 63.344 500.573 63.28C500.541 63.2 500.549 63.144 500.597 63.112L503.741 61.6H503.789C503.837 61.6 503.893 61.624 503.957 61.672C504.021 61.72 504.053 61.76 504.053 61.792L503.957 74.8C504.261 73.12 504.757 71.808 505.445 70.864C506.149 69.904 506.997 69.424 507.989 69.424C508.693 69.424 509.213 69.68 509.549 70.192C509.901 70.704 510.069 71.504 510.053 72.592L510.029 76.864C510.029 77.344 510.085 77.696 510.197 77.92C510.309 78.144 510.485 78.256 510.725 78.256C511.125 78.256 511.629 77.888 512.237 77.152ZM520.67 77.68C520.718 77.68 520.766 77.704 520.814 77.752C520.878 77.8 520.894 77.848 520.862 77.896C519.806 78.824 518.63 79.288 517.334 79.288C516.438 79.288 515.67 79.08 515.03 78.664C514.39 78.248 513.91 77.696 513.59 77.008C513.27 76.32 513.11 75.584 513.11 74.8C513.11 73.872 513.326 73 513.758 72.184C514.19 71.352 514.782 70.688 515.534 70.192C516.302 69.68 517.166 69.424 518.126 69.424C518.766 69.424 519.262 69.544 519.614 69.784C519.982 70.008 520.166 70.32 520.166 70.72C520.15 71.424 519.606 72.072 518.534 72.664C517.462 73.24 516.142 73.64 514.574 73.864C514.606 75.256 514.926 76.376 515.534 77.224C516.158 78.056 517.038 78.472 518.174 78.472C518.59 78.472 519.014 78.408 519.446 78.28C519.878 78.152 520.27 77.952 520.622 77.68H520.67ZM517.094 70.072C516.278 70.072 515.662 70.392 515.246 71.032C514.83 71.672 514.606 72.504 514.574 73.528C517.15 73.096 518.438 72.272 518.438 71.056C518.438 70.736 518.318 70.496 518.078 70.336C517.838 70.16 517.51 70.072 517.094 70.072ZM532.709 61.576C533.477 61.576 534.101 61.712 534.581 61.984C535.061 62.24 535.301 62.56 535.301 62.944C535.301 63.264 535.205 63.512 535.013 63.688C534.821 63.864 534.557 63.952 534.221 63.952C533.757 63.952 533.421 63.856 533.213 63.664C533.021 63.472 532.853 63.192 532.709 62.824C532.597 62.568 532.493 62.384 532.397 62.272C532.301 62.144 532.149 62.08 531.941 62.08C531.445 62.08 531.093 62.48 530.885 63.28C530.693 64.08 530.597 65.328 530.597 67.024L530.621 68.464L530.669 69.88C531.405 69.848 531.933 69.816 532.253 69.784C532.669 69.752 532.957 69.736 533.117 69.736C533.197 69.736 533.261 69.768 533.309 69.832C533.357 69.896 533.381 69.96 533.381 70.024C533.365 70.184 533.277 70.368 533.117 70.576C532.973 70.784 532.821 70.88 532.661 70.864L532.157 70.792C531.965 70.776 531.749 70.752 531.509 70.72C531.269 70.688 530.997 70.656 530.693 70.624L530.957 79.504L530.981 80.344C530.981 81.656 530.861 82.696 530.621 83.464C530.397 84.232 530.045 84.776 529.565 85.096C529.101 85.432 528.485 85.6 527.717 85.6C526.949 85.6 526.349 85.464 525.917 85.192C525.485 84.936 525.269 84.616 525.269 84.232C525.269 83.928 525.365 83.688 525.557 83.512C525.749 83.352 525.989 83.272 526.277 83.272C526.709 83.272 527.013 83.368 527.189 83.56C527.381 83.752 527.549 84.032 527.693 84.4C527.805 84.656 527.901 84.84 527.981 84.952C528.077 85.064 528.213 85.12 528.389 85.12C528.565 85.12 528.677 85 528.725 84.76C528.789 84.536 528.821 84.08 528.821 83.392C528.821 82.688 528.797 81.6 528.749 80.128L528.461 71.656C528.445 71.24 528.397 70.952 528.317 70.792C528.253 70.616 528.117 70.504 527.909 70.456C527.717 70.408 527.373 70.384 526.877 70.384C526.813 70.384 526.773 70.32 526.757 70.192C526.757 70.064 526.789 70 526.853 70C527.413 70 527.805 69.928 528.029 69.784C528.269 69.64 528.389 69.368 528.389 68.968L528.365 68.032C528.365 66.336 528.509 65.024 528.797 64.096C529.085 63.168 529.533 62.52 530.141 62.152C530.765 61.768 531.621 61.576 532.709 61.576ZM545.698 77.08C545.714 77.064 545.738 77.056 545.77 77.056C545.834 77.056 545.89 77.088 545.938 77.152C546.002 77.2 546.01 77.248 545.962 77.296C545.466 77.984 544.994 78.48 544.546 78.784C544.114 79.072 543.65 79.216 543.154 79.216C542.594 79.216 542.186 79.048 541.93 78.712C541.674 78.36 541.538 77.84 541.522 77.152V75.112C541.186 76.456 540.69 77.496 540.034 78.232C539.394 78.952 538.626 79.312 537.73 79.312C536.962 79.312 536.378 79.048 535.978 78.52C535.594 77.992 535.41 77.2 535.426 76.144L535.522 71.872C535.538 71.12 535.346 70.744 534.946 70.744C534.786 70.744 534.618 70.808 534.442 70.936C534.282 71.064 534.05 71.28 533.746 71.584C533.714 71.616 533.69 71.632 533.674 71.632C533.61 71.632 533.554 71.608 533.506 71.56C533.458 71.496 533.442 71.44 533.458 71.392C533.954 70.736 534.394 70.264 534.778 69.976C535.178 69.672 535.618 69.52 536.098 69.52C536.642 69.52 537.058 69.712 537.346 70.096C537.634 70.48 537.762 71.072 537.73 71.872L537.658 75.688C537.642 77.192 538.018 77.944 538.786 77.944C539.266 77.944 539.706 77.68 540.106 77.152C540.522 76.608 540.858 75.808 541.114 74.752C541.37 73.696 541.514 72.44 541.546 70.984V70.024C541.546 69.88 541.666 69.768 541.906 69.688C542.146 69.592 542.498 69.544 542.962 69.544C543.506 69.544 543.802 69.608 543.85 69.736V70.288C543.818 70.736 543.802 71.144 543.802 71.512L543.778 76.864C543.778 77.648 543.978 78.04 544.378 78.04C544.73 78.04 545.17 77.72 545.698 77.08ZM553.443 77.056C553.491 77.056 553.539 77.088 553.587 77.152C553.635 77.2 553.643 77.248 553.611 77.296C552.923 78 552.299 78.512 551.739 78.832C551.179 79.136 550.595 79.288 549.987 79.288C548.259 79.288 547.411 78.44 547.443 76.744L547.467 71.656C547.483 71.144 547.411 70.808 547.251 70.648C547.091 70.472 546.763 70.384 546.267 70.384C546.203 70.384 546.163 70.32 546.147 70.192C546.147 70.064 546.171 70 546.219 70C547.659 70 548.643 69.296 549.171 67.888C549.203 67.84 549.267 67.816 549.363 67.816C549.443 67.816 549.515 67.832 549.579 67.864C549.659 67.896 549.699 67.928 549.699 67.96V69.928C550.355 69.896 551.395 69.832 552.819 69.736C552.899 69.736 552.963 69.768 553.011 69.832C553.059 69.896 553.083 69.96 553.083 70.024C553.067 70.2 552.979 70.4 552.819 70.624C552.675 70.832 552.515 70.928 552.339 70.912C551.331 70.752 550.451 70.656 549.699 70.624L549.675 76.336C549.675 76.896 549.803 77.312 550.059 77.584C550.331 77.84 550.747 77.968 551.307 77.968C552.011 77.968 552.715 77.664 553.419 77.056H553.443ZM565.643 77.08C565.659 77.064 565.683 77.056 565.715 77.056C565.779 77.056 565.835 77.088 565.883 77.152C565.947 77.2 565.955 77.248 565.907 77.296C565.411 77.984 564.939 78.48 564.491 78.784C564.059 79.072 563.595 79.216 563.099 79.216C562.539 79.216 562.131 79.048 561.875 78.712C561.619 78.36 561.483 77.84 561.467 77.152V75.112C561.131 76.456 560.635 77.496 559.979 78.232C559.339 78.952 558.571 79.312 557.675 79.312C556.907 79.312 556.323 79.048 555.923 78.52C555.539 77.992 555.355 77.2 555.371 76.144L555.467 71.872C555.483 71.12 555.291 70.744 554.891 70.744C554.731 70.744 554.563 70.808 554.387 70.936C554.227 71.064 553.995 71.28 553.691 71.584C553.659 71.616 553.635 71.632 553.619 71.632C553.555 71.632 553.499 71.608 553.451 71.56C553.403 71.496 553.387 71.44 553.403 71.392C553.899 70.736 554.339 70.264 554.723 69.976C555.123 69.672 555.563 69.52 556.043 69.52C556.587 69.52 557.003 69.712 557.291 70.096C557.579 70.48 557.707 71.072 557.675 71.872L557.603 75.688C557.587 77.192 557.963 77.944 558.731 77.944C559.211 77.944 559.651 77.68 560.051 77.152C560.467 76.608 560.803 75.808 561.059 74.752C561.315 73.696 561.459 72.44 561.491 70.984V70.024C561.491 69.88 561.611 69.768 561.851 69.688C562.091 69.592 562.443 69.544 562.907 69.544C563.451 69.544 563.747 69.608 563.795 69.736V70.288C563.763 70.736 563.747 71.144 563.747 71.512L563.723 76.864C563.723 77.648 563.923 78.04 564.323 78.04C564.675 78.04 565.115 77.72 565.643 77.08ZM574.42 70.72C574.42 70.992 574.292 71.288 574.036 71.608C573.78 71.912 573.5 72.064 573.196 72.064C573.036 72.064 572.892 72.04 572.764 71.992C572.652 71.928 572.508 71.848 572.332 71.752C572.22 71.688 572.108 71.632 571.996 71.584C571.9 71.536 571.804 71.512 571.708 71.512C571.404 71.512 571.116 71.904 570.844 72.688C570.588 73.456 570.38 74.4 570.22 75.52C570.076 76.624 569.996 77.624 569.98 78.52V78.712C569.98 79.032 569.524 79.192 568.612 79.192C568.052 79.192 567.756 79.128 567.724 79V78.448C567.756 78 567.772 77.592 567.772 77.224L567.796 71.872C567.796 71.088 567.588 70.696 567.172 70.696C566.804 70.696 566.372 71.016 565.876 71.656C565.844 71.688 565.812 71.704 565.78 71.704C565.716 71.704 565.66 71.68 565.612 71.632C565.564 71.568 565.564 71.504 565.612 71.44C566.092 70.768 566.556 70.28 567.004 69.976C567.452 69.672 567.924 69.52 568.42 69.52C568.98 69.52 569.38 69.696 569.62 70.048C569.86 70.384 569.996 70.896 570.028 71.584L570.004 74.152C570.212 72.728 570.524 71.6 570.94 70.768C571.356 69.92 571.9 69.496 572.572 69.496C572.972 69.496 573.38 69.624 573.796 69.88C574.212 70.12 574.42 70.4 574.42 70.72ZM583.116 77.488C583.164 77.488 583.212 77.512 583.26 77.56C583.308 77.608 583.316 77.648 583.284 77.68C582.772 78.24 582.188 78.648 581.532 78.904C580.876 79.16 580.204 79.288 579.516 79.288C578.556 79.288 577.74 79.072 577.068 78.64C576.396 78.208 575.892 77.64 575.556 76.936C575.22 76.232 575.052 75.48 575.052 74.68C575.052 73.816 575.276 72.984 575.724 72.184C576.172 71.368 576.804 70.704 577.62 70.192C578.452 69.68 579.404 69.424 580.476 69.424C581.196 69.424 581.756 69.536 582.156 69.76C582.572 69.984 582.804 70.304 582.852 70.72C582.916 71.424 582.42 72.08 581.364 72.688C580.308 73.296 579.004 73.736 577.452 74.008C577.516 75.24 577.836 76.256 578.412 77.056C579.004 77.84 579.804 78.232 580.812 78.232C581.196 78.232 581.588 78.176 581.988 78.064C582.388 77.936 582.748 77.744 583.068 77.488H583.116ZM579.228 70.072C578.668 70.072 578.228 70.408 577.908 71.08C577.604 71.736 577.452 72.584 577.452 73.624C579.388 73.176 580.324 72.376 580.26 71.224C580.26 70.872 580.164 70.592 579.972 70.384C579.796 70.176 579.548 70.072 579.228 70.072ZM586.041 77.296C586.521 77.296 586.897 77.48 587.169 77.848C587.441 78.2 587.577 78.712 587.577 79.384C587.577 80.024 587.433 80.616 587.145 81.16C586.857 81.72 586.433 82.272 585.873 82.816C585.857 82.832 585.833 82.84 585.801 82.84C585.753 82.84 585.713 82.816 585.681 82.768C585.649 82.72 585.649 82.68 585.681 82.648C586.465 81.848 586.857 80.904 586.857 79.816C586.857 79.368 586.777 79.04 586.617 78.832C586.473 79.072 586.225 79.192 585.873 79.192C585.585 79.192 585.353 79.104 585.177 78.928C585.017 78.752 584.937 78.528 584.937 78.256C584.937 77.616 585.305 77.296 586.041 77.296ZM420.252 118.448C419.143 118.448 418.172 118.181 417.34 117.648C416.529 117.093 415.9 116.347 415.452 115.408C415.004 114.469 414.78 113.413 414.78 112.24C414.78 110.917 415.047 109.723 415.58 108.656C416.113 107.589 416.849 106.757 417.788 106.16C418.748 105.541 419.836 105.232 421.052 105.232C422.673 105.232 423.985 105.776 424.988 106.864C426.012 107.931 426.524 109.413 426.524 111.312C426.524 112.763 426.236 114.032 425.66 115.12C425.084 116.208 424.316 117.04 423.356 117.616C422.396 118.171 421.361 118.448 420.252 118.448ZM421.212 117.648C422.257 117.648 423.121 117.211 423.804 116.336C424.487 115.461 424.828 114.277 424.828 112.784C424.828 111.632 424.625 110.533 424.22 109.488C423.836 108.443 423.281 107.6 422.556 106.96C421.852 106.32 421.052 106 420.156 106C419.111 106 418.236 106.427 417.532 107.28C416.828 108.133 416.476 109.307 416.476 110.8C416.476 111.931 416.679 113.029 417.084 114.096C417.489 115.141 418.055 115.995 418.78 116.656C419.505 117.317 420.316 117.648 421.212 117.648ZM443.572 115.504C443.658 115.504 443.732 115.547 443.796 115.632C443.882 115.696 443.903 115.749 443.86 115.792C443.199 116.645 442.612 117.275 442.1 117.68C441.61 118.085 441.087 118.288 440.532 118.288C439.316 118.288 438.73 117.445 438.772 115.76L438.804 110.064C438.804 107.675 438.175 106.48 436.916 106.48C436.106 106.48 435.359 106.917 434.676 107.792C434.015 108.667 433.482 109.957 433.076 111.664C432.671 113.371 432.458 115.408 432.436 117.776C432.436 117.925 432.34 118.043 432.148 118.128C431.978 118.213 431.722 118.256 431.38 118.256C431.06 118.256 430.847 118.235 430.74 118.192C430.634 118.171 430.559 118.128 430.516 118.064C430.516 117.979 430.527 117.691 430.548 117.2C430.591 116.688 430.612 116.165 430.612 115.632L430.676 108.496C430.676 107.856 430.591 107.387 430.42 107.088C430.25 106.768 430.015 106.608 429.716 106.608C429.247 106.608 428.532 107.12 427.572 108.144C427.53 108.187 427.498 108.208 427.476 108.208C427.391 108.208 427.316 108.176 427.252 108.112C427.188 108.027 427.178 107.952 427.22 107.888C427.86 107.035 428.458 106.405 429.012 106C429.567 105.573 430.143 105.36 430.74 105.36C431.338 105.36 431.764 105.563 432.02 105.968C432.298 106.373 432.436 106.992 432.436 107.824V112.368C432.842 110.128 433.503 108.379 434.42 107.12C435.359 105.861 436.49 105.232 437.812 105.232C438.751 105.232 439.455 105.573 439.924 106.256C440.394 106.917 440.618 107.984 440.596 109.456L440.564 115.152C440.564 115.792 440.628 116.261 440.756 116.56C440.906 116.859 441.14 117.008 441.46 117.008C441.951 117.008 442.634 116.517 443.508 115.536L443.572 115.504ZM454.735 116.24C454.799 116.24 454.863 116.272 454.927 116.336C455.012 116.4 455.034 116.464 454.991 116.528C453.583 117.765 452.015 118.384 450.287 118.384C449.092 118.384 448.068 118.107 447.215 117.552C446.362 116.997 445.722 116.261 445.295 115.344C444.868 114.427 444.655 113.445 444.655 112.4C444.655 111.163 444.943 110 445.519 108.912C446.095 107.803 446.884 106.917 447.887 106.256C448.911 105.573 450.063 105.232 451.343 105.232C452.196 105.232 452.858 105.392 453.327 105.712C453.818 106.011 454.063 106.427 454.063 106.96C454.042 107.899 453.316 108.763 451.887 109.552C450.458 110.32 448.698 110.853 446.607 111.152C446.65 113.008 447.076 114.501 447.887 115.632C448.719 116.741 449.892 117.296 451.407 117.296C451.962 117.296 452.527 117.211 453.103 117.04C453.679 116.869 454.202 116.603 454.671 116.24H454.735ZM449.967 106.096C448.879 106.096 448.058 106.523 447.503 107.376C446.948 108.229 446.65 109.339 446.607 110.704C450.042 110.128 451.759 109.029 451.759 107.408C451.759 106.981 451.599 106.661 451.279 106.448C450.959 106.213 450.522 106.096 449.967 106.096ZM473.795 105.232C474.883 105.232 475.757 105.669 476.419 106.544C477.101 107.419 477.453 108.56 477.475 109.968C477.475 111.696 477.048 113.2 476.195 114.48C475.341 115.76 474.285 116.741 473.027 117.424C471.768 118.085 470.552 118.416 469.379 118.416C467.992 118.416 466.883 118.128 466.051 117.552C465.24 116.976 464.845 116.197 464.867 115.216L464.995 99.152C465.016 98.4693 464.941 97.9787 464.771 97.68C464.621 97.36 464.365 97.2 464.003 97.2C463.619 97.2 463.149 97.3387 462.595 97.616H462.531C462.445 97.616 462.381 97.5627 462.339 97.456C462.296 97.3493 462.317 97.2747 462.403 97.232L467.459 94.8H467.523C467.608 94.8 467.693 94.832 467.779 94.896C467.864 94.96 467.907 95.0133 467.907 95.056V110.544C468.376 108.965 469.133 107.685 470.179 106.704C471.245 105.723 472.451 105.232 473.795 105.232ZM470.499 117.52C471.203 117.52 471.843 117.264 472.419 116.752C472.995 116.219 473.443 115.461 473.763 114.48C474.104 113.477 474.264 112.304 474.243 110.96C474.285 109.915 474.125 109.061 473.763 108.4C473.4 107.717 472.867 107.376 472.163 107.376C471.331 107.376 470.595 107.685 469.955 108.304C469.315 108.923 468.813 109.787 468.451 110.896C468.088 112.005 467.907 113.275 467.907 114.704V114.928C467.907 115.675 468.152 116.293 468.643 116.784C469.155 117.275 469.773 117.52 470.499 117.52ZM490.606 105.392C491.225 105.392 491.63 105.413 491.822 105.456C492.014 105.477 492.121 105.52 492.142 105.584C492.142 106.459 492.121 107.269 492.078 108.016L492.014 120.24C491.971 122.267 491.374 123.899 490.222 125.136C489.07 126.373 487.491 126.992 485.486 126.992C484.611 126.992 483.811 126.885 483.086 126.672C482.382 126.459 481.838 126.16 481.454 125.776C481.07 125.413 480.899 125.008 480.942 124.56C480.942 124.005 481.081 123.589 481.358 123.312C481.635 123.056 481.977 122.928 482.382 122.928C482.873 122.928 483.235 123.045 483.47 123.28C483.726 123.536 483.982 123.931 484.238 124.464C484.515 125.061 484.814 125.52 485.134 125.84C485.475 126.16 486.019 126.32 486.766 126.32C487.47 126.32 488.014 125.936 488.398 125.168C488.782 124.4 488.974 123.013 488.974 121.008L489.006 112.912C488.537 114.683 487.865 116.048 486.99 117.008C486.137 117.947 485.123 118.416 483.95 118.416C482.926 118.416 482.147 118.064 481.614 117.36C481.102 116.656 480.857 115.6 480.878 114.192L481.006 108.496C481.027 107.493 480.771 106.992 480.238 106.992C480.025 106.992 479.79 107.088 479.534 107.28C479.278 107.451 478.969 107.728 478.606 108.112C478.563 108.155 478.521 108.176 478.478 108.176C478.414 108.176 478.361 108.144 478.318 108.08C478.254 107.995 478.233 107.92 478.254 107.856C478.915 106.981 479.502 106.352 480.014 105.968C480.547 105.563 481.134 105.36 481.774 105.36C482.499 105.36 483.054 105.616 483.438 106.128C483.822 106.64 483.993 107.429 483.95 108.496L483.854 113.584C483.833 115.589 484.334 116.592 485.358 116.592C485.977 116.592 486.542 116.251 487.054 115.568C487.587 114.864 488.025 113.851 488.366 112.528C488.729 111.184 488.942 109.595 489.006 107.76L489.038 105.84C489.038 105.712 489.177 105.605 489.454 105.52C489.731 105.435 490.115 105.392 490.606 105.392ZM504.026 115.408C504.09 115.408 504.154 115.451 504.218 115.536C504.282 115.6 504.293 115.664 504.25 115.728C503.333 116.667 502.501 117.349 501.754 117.776C501.007 118.181 500.229 118.384 499.418 118.384C497.114 118.384 495.983 117.253 496.026 114.992L496.058 108.208C496.079 107.525 495.983 107.077 495.77 106.864C495.557 106.629 495.119 106.512 494.458 106.512C494.373 106.512 494.319 106.427 494.298 106.256C494.298 106.085 494.33 106 494.394 106C496.314 106 497.626 105.061 498.33 103.184C498.373 103.12 498.458 103.088 498.586 103.088C498.693 103.088 498.789 103.109 498.874 103.152C498.981 103.195 499.034 103.237 499.034 103.28V105.904C499.909 105.861 501.295 105.776 503.194 105.648C503.301 105.648 503.386 105.691 503.45 105.776C503.514 105.861 503.546 105.947 503.546 106.032C503.525 106.267 503.407 106.533 503.194 106.832C503.002 107.109 502.789 107.237 502.554 107.216C501.21 107.003 500.037 106.875 499.034 106.832L499.002 114.448C499.002 115.195 499.173 115.749 499.514 116.112C499.877 116.453 500.431 116.624 501.178 116.624C502.117 116.624 503.055 116.219 503.994 115.408H504.026ZM515.653 115.984C515.717 115.984 515.781 116.016 515.845 116.08C515.909 116.144 515.919 116.197 515.877 116.24C515.194 116.987 514.415 117.531 513.541 117.872C512.666 118.213 511.77 118.384 510.853 118.384C509.573 118.384 508.485 118.096 507.589 117.52C506.693 116.944 506.021 116.187 505.573 115.248C505.125 114.309 504.901 113.307 504.901 112.24C504.901 111.088 505.199 109.979 505.797 108.912C506.394 107.824 507.237 106.939 508.325 106.256C509.434 105.573 510.703 105.232 512.133 105.232C513.093 105.232 513.839 105.381 514.373 105.68C514.927 105.979 515.237 106.405 515.301 106.96C515.386 107.899 514.725 108.773 513.317 109.584C511.909 110.395 510.17 110.981 508.101 111.344C508.186 112.987 508.613 114.341 509.381 115.408C510.17 116.453 511.237 116.976 512.581 116.976C513.093 116.976 513.615 116.901 514.149 116.752C514.682 116.581 515.162 116.325 515.589 115.984H515.653ZM510.469 106.096C509.722 106.096 509.135 106.544 508.709 107.44C508.303 108.315 508.101 109.445 508.101 110.832C510.682 110.235 511.93 109.168 511.845 107.632C511.845 107.163 511.717 106.789 511.461 106.512C511.226 106.235 510.895 106.096 510.469 106.096ZM538.732 115.536C538.753 115.515 538.785 115.504 538.828 115.504C538.892 115.504 538.956 115.547 539.02 115.632C539.084 115.696 539.105 115.749 539.084 115.792C538.465 116.645 537.889 117.275 537.356 117.68C536.844 118.085 536.321 118.288 535.788 118.288C534.593 118.288 533.996 117.445 533.996 115.76L534.06 111.792C533.356 113.776 532.428 115.376 531.276 116.592C530.145 117.808 528.94 118.416 527.66 118.416C526.849 118.416 526.188 118.139 525.676 117.584C525.185 117.008 524.94 116.101 524.94 114.864C524.94 113.392 525.292 111.909 525.996 110.416C526.721 108.901 527.66 107.664 528.812 106.704C529.964 105.723 531.137 105.232 532.332 105.232C532.78 105.232 533.217 105.307 533.644 105.456C534.092 105.605 534.487 105.829 534.828 106.128C535.169 105.787 535.372 105.413 535.436 105.008C535.457 104.965 535.532 104.944 535.66 104.944C535.809 104.944 535.873 104.965 535.852 105.008L535.788 115.152C535.767 116.389 536.065 117.008 536.684 117.008C537.217 117.008 537.9 116.517 538.732 115.536ZM528.684 116.848C529.559 116.848 530.401 116.432 531.212 115.6C532.023 114.747 532.673 113.701 533.164 112.464C533.676 111.227 533.932 110.064 533.932 108.976C533.932 108.187 533.697 107.557 533.228 107.088C532.78 106.597 532.183 106.352 531.436 106.352C530.583 106.352 529.793 106.661 529.068 107.28C528.343 107.899 527.767 108.752 527.34 109.84C526.913 110.928 526.7 112.144 526.7 113.488C526.7 114.64 526.86 115.493 527.18 116.048C527.521 116.581 528.023 116.848 528.684 116.848ZM548.39 115.728C548.454 115.728 548.518 115.771 548.582 115.856C548.646 115.92 548.657 115.973 548.614 116.016C547.718 116.848 546.908 117.456 546.182 117.84C545.478 118.203 544.764 118.384 544.038 118.384C543.228 118.384 542.556 118.171 542.022 117.744C541.489 117.317 541.233 116.624 541.254 115.664L541.286 108.208C541.265 107.653 541.222 107.259 541.158 107.024C541.094 106.789 540.956 106.64 540.742 106.576C540.55 106.491 540.209 106.448 539.718 106.448C539.633 106.448 539.58 106.384 539.558 106.256C539.558 106.128 539.601 106.064 539.686 106.064C540.497 106.064 541.148 105.84 541.638 105.392C542.15 104.923 542.449 104.325 542.534 103.6C542.534 103.536 542.62 103.504 542.79 103.504C543.004 103.504 543.11 103.536 543.11 103.6V105.968C543.9 105.947 545.382 105.872 547.558 105.744C547.644 105.744 547.708 105.776 547.75 105.84C547.814 105.883 547.846 105.947 547.846 106.032C547.825 106.245 547.708 106.48 547.494 106.736C547.302 106.992 547.078 107.099 546.822 107.056C545.35 106.864 544.113 106.757 543.11 106.736L543.078 114.672C543.078 115.547 543.228 116.187 543.526 116.592C543.846 116.976 544.401 117.168 545.19 117.168C545.788 117.168 546.332 117.051 546.822 116.816C547.313 116.56 547.825 116.197 548.358 115.728H548.39ZM571.17 115.536C571.191 115.515 571.223 115.504 571.266 115.504C571.33 115.504 571.394 115.547 571.458 115.632C571.522 115.696 571.543 115.749 571.522 115.792C570.903 116.645 570.327 117.275 569.794 117.68C569.282 118.085 568.759 118.288 568.226 118.288C567.031 118.288 566.434 117.445 566.434 115.76L566.498 111.792C565.794 113.776 564.866 115.376 563.714 116.592C562.583 117.808 561.378 118.416 560.098 118.416C559.287 118.416 558.626 118.139 558.114 117.584C557.623 117.008 557.378 116.101 557.378 114.864C557.378 113.392 557.73 111.909 558.434 110.416C559.159 108.901 560.098 107.664 561.25 106.704C562.402 105.723 563.575 105.232 564.77 105.232C565.218 105.232 565.655 105.307 566.082 105.456C566.53 105.605 566.924 105.829 567.266 106.128C567.607 105.787 567.81 105.413 567.874 105.008C567.895 104.965 567.97 104.944 568.098 104.944C568.247 104.944 568.311 104.965 568.29 105.008L568.226 115.152C568.204 116.389 568.503 117.008 569.122 117.008C569.655 117.008 570.338 116.517 571.17 115.536ZM561.122 116.848C561.996 116.848 562.839 116.432 563.65 115.6C564.46 114.747 565.111 113.701 565.602 112.464C566.114 111.227 566.37 110.064 566.37 108.976C566.37 108.187 566.135 107.557 565.666 107.088C565.218 106.597 564.62 106.352 563.874 106.352C563.02 106.352 562.231 106.661 561.506 107.28C560.78 107.899 560.204 108.752 559.778 109.84C559.351 110.928 559.138 112.144 559.138 113.488C559.138 114.64 559.298 115.493 559.618 116.048C559.959 116.581 560.46 116.848 561.122 116.848ZM588.328 115.728C588.392 115.728 588.456 115.771 588.52 115.856C588.584 115.92 588.595 115.973 588.552 116.016C587.656 116.848 586.845 117.456 586.12 117.84C585.416 118.203 584.701 118.384 583.976 118.384C583.165 118.384 582.493 118.171 581.96 117.744C581.427 117.317 581.171 116.624 581.192 115.664L581.224 108.208C581.203 107.653 581.16 107.259 581.096 107.024C581.032 106.789 580.893 106.64 580.68 106.576C580.488 106.491 580.147 106.448 579.656 106.448C579.571 106.448 579.517 106.384 579.496 106.256C579.496 106.128 579.539 106.064 579.624 106.064C580.435 106.064 581.085 105.84 581.576 105.392C582.088 104.923 582.387 104.325 582.472 103.6C582.472 103.536 582.557 103.504 582.728 103.504C582.941 103.504 583.048 103.536 583.048 103.6V105.968C583.837 105.947 585.32 105.872 587.496 105.744C587.581 105.744 587.645 105.776 587.688 105.84C587.752 105.883 587.784 105.947 587.784 106.032C587.763 106.245 587.645 106.48 587.432 106.736C587.24 106.992 587.016 107.099 586.76 107.056C585.288 106.864 584.051 106.757 583.048 106.736L583.016 114.672C583.016 115.547 583.165 116.187 583.464 116.592C583.784 116.976 584.339 117.168 585.128 117.168C585.725 117.168 586.269 117.051 586.76 116.816C587.251 116.56 587.763 116.197 588.296 115.728H588.328ZM593.751 118.288C593.154 118.288 592.695 118.075 592.375 117.648C592.076 117.221 591.938 116.592 591.959 115.76L592.055 108.496C592.076 107.237 591.767 106.608 591.127 106.608C590.615 106.608 589.9 107.12 588.983 108.144C588.94 108.187 588.908 108.208 588.887 108.208C588.802 108.208 588.727 108.176 588.663 108.112C588.599 108.027 588.588 107.952 588.631 107.888C589.271 107.035 589.868 106.405 590.423 106C590.978 105.573 591.554 105.36 592.151 105.36C592.748 105.36 593.186 105.563 593.463 105.968C593.74 106.373 593.879 106.992 593.879 107.824L593.783 115.152C593.783 116.389 594.082 117.008 594.679 117.008C595.212 117.008 595.895 116.517 596.727 115.536C596.748 115.515 596.78 115.504 596.823 115.504C596.908 115.504 596.983 115.547 597.047 115.632C597.132 115.696 597.154 115.749 597.111 115.792C596.45 116.645 595.863 117.275 595.351 117.68C594.839 118.085 594.306 118.288 593.751 118.288ZM592.631 101.616C592.183 101.616 591.831 101.499 591.575 101.264C591.319 101.008 591.191 100.656 591.191 100.208C591.191 99.8027 591.319 99.4827 591.575 99.248C591.831 99.0133 592.183 98.896 592.631 98.896C593.036 98.896 593.356 99.0133 593.591 99.248C593.847 99.4827 593.975 99.8027 593.975 100.208C593.975 100.656 593.858 101.008 593.623 101.264C593.388 101.499 593.058 101.616 592.631 101.616ZM620.432 115.536C620.453 115.515 620.485 115.504 620.528 115.504C620.613 115.504 620.688 115.547 620.752 115.632C620.837 115.696 620.858 115.749 620.816 115.792C620.133 116.667 619.536 117.307 619.024 117.712C618.533 118.096 618.021 118.288 617.488 118.288C616.293 118.288 615.696 117.445 615.696 115.76L615.728 110.064C615.728 107.675 615.13 106.48 613.936 106.48C613.168 106.48 612.453 106.939 611.792 107.856C611.152 108.752 610.64 110.053 610.256 111.76C609.872 113.467 609.68 115.472 609.68 117.776C609.68 117.925 609.584 118.043 609.392 118.128C609.221 118.213 608.976 118.256 608.656 118.256C608.336 118.256 608.122 118.235 608.016 118.192C607.909 118.171 607.845 118.128 607.824 118.064C607.824 117.979 607.834 117.744 607.856 117.36C607.877 116.955 607.888 116.379 607.888 115.632L607.92 110.064C607.898 107.675 607.312 106.48 606.16 106.48C605.413 106.48 604.72 106.928 604.08 107.824C603.44 108.72 602.917 110.011 602.512 111.696C602.128 113.36 601.936 115.301 601.936 117.52V117.776C601.936 117.925 601.84 118.043 601.648 118.128C601.477 118.213 601.221 118.256 600.88 118.256C600.581 118.256 600.378 118.235 600.272 118.192C600.165 118.171 600.09 118.128 600.048 118.064L600.144 115.792L600.208 108.496C600.208 107.856 600.122 107.387 599.952 107.088C599.781 106.768 599.546 106.608 599.248 106.608C598.778 106.608 598.064 107.12 597.104 108.144C597.061 108.187 597.018 108.208 596.976 108.208C596.912 108.208 596.858 108.176 596.816 108.112C596.752 108.027 596.73 107.952 596.752 107.888C597.392 107.035 597.989 106.405 598.544 106C599.098 105.573 599.674 105.36 600.272 105.36C600.869 105.36 601.296 105.563 601.552 105.968C601.829 106.373 601.968 106.992 601.968 107.824V112.08C602.352 109.925 602.981 108.251 603.856 107.056C604.752 105.84 605.829 105.232 607.088 105.232C607.984 105.232 608.645 105.573 609.072 106.256C609.52 106.917 609.733 107.984 609.712 109.456V112.144C610.096 109.947 610.725 108.251 611.6 107.056C612.496 105.84 613.573 105.232 614.832 105.232C615.749 105.232 616.421 105.573 616.848 106.256C617.274 106.939 617.498 108.005 617.52 109.456L617.488 115.152C617.488 116.389 617.786 117.008 618.384 117.008C618.917 117.008 619.6 116.517 620.432 115.536ZM631.704 116.24C631.768 116.24 631.832 116.272 631.896 116.336C631.981 116.4 632.003 116.464 631.96 116.528C630.552 117.765 628.984 118.384 627.256 118.384C626.061 118.384 625.037 118.107 624.184 117.552C623.331 116.997 622.691 116.261 622.264 115.344C621.837 114.427 621.624 113.445 621.624 112.4C621.624 111.163 621.912 110 622.488 108.912C623.064 107.803 623.853 106.917 624.856 106.256C625.88 105.573 627.032 105.232 628.312 105.232C629.165 105.232 629.827 105.392 630.296 105.712C630.787 106.011 631.032 106.427 631.032 106.96C631.011 107.899 630.285 108.763 628.856 109.552C627.427 110.32 625.667 110.853 623.576 111.152C623.619 113.008 624.045 114.501 624.856 115.632C625.688 116.741 626.861 117.296 628.376 117.296C628.931 117.296 629.496 117.211 630.072 117.04C630.648 116.869 631.171 116.603 631.64 116.24H631.704ZM626.936 106.096C625.848 106.096 625.027 106.523 624.472 107.376C623.917 108.229 623.619 109.339 623.576 110.704C627.011 110.128 628.728 109.029 628.728 107.408C628.728 106.981 628.568 106.661 628.248 106.448C627.928 106.213 627.491 106.096 626.936 106.096ZM635.487 118.352C635.061 118.352 634.719 118.224 634.463 117.968C634.207 117.712 634.079 117.371 634.079 116.944C634.079 116.539 634.207 116.219 634.463 115.984C634.719 115.749 635.061 115.632 635.487 115.632C635.935 115.632 636.277 115.749 636.511 115.984C636.767 116.219 636.895 116.539 636.895 116.944C636.895 117.371 636.767 117.712 636.511 117.968C636.277 118.224 635.935 118.352 635.487 118.352Z" fill="#1C1C1C"/>
<path d="M22.9829 125.286V120.12V4.81532L0 0.70041L56.3399 0C61.3596 0 65.9122 0.23347 69.998 0.70041C74.1421 1.16735 78.2278 2.04286 82.2551 3.32695C86.2825 4.55267 89.6386 6.18696 92.3235 8.22982C95.0668 10.2727 97.2556 12.9868 98.8899 16.3721C100.583 19.699 101.429 23.6097 101.429 28.104C101.429 31.6644 100.641 34.9622 99.065 37.9973C97.4891 40.974 95.4754 43.4546 93.0239 45.4391C90.6309 47.4236 87.8292 49.2038 84.619 50.7798C81.4088 52.2973 78.3153 53.4647 75.3386 54.2818C72.3618 55.0989 69.3851 55.7118 66.4083 56.1204C72.3035 56.1204 77.7316 57.171 82.6929 58.5718C87.6541 59.9143 91.9733 61.9279 95.6505 64.6129C99.386 67.2978 102.304 70.829 104.406 75.2066C106.507 79.5258 107.557 84.4578 107.557 90.0027C107.557 95.0223 106.653 99.5458 104.843 103.573C103.034 107.542 100.612 110.84 97.5766 113.466C94.5415 116.093 90.9519 118.282 86.8078 120.033C82.7221 121.784 78.4612 123.039 74.0253 123.798C69.5894 124.556 64.9492 124.936 60.1047 124.936L22.9829 125.286ZM45.396 119.245C49 119.245 52.0816 119.245 55 119.245C64.2804 119.245 71.0486 117.435 76.3016 112.066C81.6131 106.696 84.2688 99.3999 84.2688 90.1778C84.2688 80.3137 81.5255 72.7843 76.039 67.5896C70.6108 62.3365 63.6306 60.3228 54 60.3228C51.2567 60.3228 48.5 60.3228 45.396 60.3228V119.245ZM45.396 54.3694C48 54.3694 50.4571 54.3694 52.5 54.3694C70.1854 54.3694 78.6655 46.1395 78.6655 28.6293C78.6655 21.1582 76.681 15.3215 72.712 11.119C68.743 6.91655 62.6715 5.69083 54.5 5.69083C51.5816 5.69083 49 5.69083 45.396 5.69083V54.3694Z" fill="#1C1C1C"/>
<path d="M158.88 4.81532L131 0.70041H181.468L181.293 4.81532V86.5882C181.293 88.9813 181.352 91.1117 181.468 92.9795C181.585 94.8472 181.848 97.0944 182.256 99.7209C182.723 102.289 183.365 104.536 184.182 106.462C184.999 108.389 186.167 110.373 187.684 112.416C189.202 114.459 191.011 116.151 193.113 117.494C195.214 118.778 197.84 119.858 200.992 120.733C204.202 121.55 207.792 121.959 211.761 121.959C216.547 121.959 220.779 121.229 224.456 119.77C228.191 118.253 231.197 116.297 233.474 113.904C235.808 111.511 237.705 108.593 239.165 105.149C240.682 101.705 241.733 98.2034 242.316 94.643C242.9 91.0825 243.192 87.2303 243.192 83.0862V4.81532L224.456 0.70041H248.795V4.81532V85.0123C248.795 89.2148 248.445 93.2129 247.745 97.0068C247.103 100.742 245.877 104.565 244.067 108.476C242.258 112.387 239.923 115.743 237.063 118.544C234.203 121.288 230.351 123.535 225.507 125.286C220.72 127.095 215.205 128 208.959 128C202.481 128 196.673 127.533 191.537 126.599C186.459 125.665 182.169 124.44 178.667 122.922C175.223 121.404 172.246 119.449 169.736 117.056C167.285 114.663 165.359 112.27 163.958 109.877C162.557 107.484 161.448 104.653 160.631 101.384C159.872 98.0574 159.376 95.0515 159.143 92.3666C158.968 89.6817 158.88 86.559 158.88 82.9986V4.81532Z" fill="#1C1C1C"/>
<path d="M312.9 4.81532L292.5 0H318.241L393.36 91.0534H393.535L392.309 4.81532L368.5 0.70041H397.825V4.81532L398.788 126.687L318.328 35.3707H318.153L319.379 120.12V128H313.863V120.12L312.9 4.81532Z" fill="#1C1C1C"/>
</svg>
